# xmcd
#
# Track frame offsets:
#	150
#	14045
#	29617
#	47057
#	67530
#	80225
#	96035
#	108610
#	119650
#	141657
#	153230
#	162527
#	177142
#	192942
#	202385
#	217517
#	230339
#
# Disc length: 3212 seconds
# Revision: 0
# Processed by: cddbd v1.5.2PL0 Copyright (c) Steve Scherf et al.
# Submitted via: dBpowerAMP V12.0
#
DISCID=f70c8a11
DTITLE=Various Artist - Accordéon Français 《Paris musette》 Original Vol.3
DYEAR=1998
DGENRE=International
TTITLE0=Jo Privat - Paris Musette
TTITLE1=Martin O'Connor - Indifference
TTITLE2=Joe Rossi - Modulante
TTITLE3=Emmanuel Bex - Les Nocturnes
TTITLE4=Daniel Denécheau - Avec Entrain
TTITLE5=	Michel Esbelin （Cabrette） - La Valse des Barreaux Verts
TTITLE6=Armand Lassagne - Brise Napolitaine
TTITLE7=Alain Musicchini - Vent d' Automne
TTITLE8=Éric Bouvelle - Vent d' Automne - Reproche - Bourrasque
TTITLE9=Éric Bouvelle - La Vicieijse
TTITLE10=Joe Rossi - Miliana
TTITLE11=François Parisi - Roger Le Vénitien
TTITLE12=Jean Corti - La Ritale
TTITLE13=Marcel Azzola - Rue de la Chine
TTITLE14=Serge Desaunay - Titine
TTITLE15=Daniel Colin - Alhambra
TTITLE16=François Parisi - Cinq Doigts D'eau
EXTD=
EXTT0=
EXTT1=
EXTT2=
EXTT3=
EXTT4=
EXTT5=
EXTT6=
EXTT7=
EXTT8=
EXTT9=
EXTT10=
EXTT11=
EXTT12=
EXTT13=
EXTT14=
EXTT15=
EXTT16=
PLAYORDER=
